HIERARCHY
ROOT Root
{
	OFFSET 0.0000 0.0000 0.0000
	CHANNELS 6 Xposition Yposition Zposition Zrotation Xrotation Yrotation
	JOINT Spine01
	{
		OFFSET 0.0000 -16.7008 118.8322
		CHANNELS 6 Xposition Yposition Zposition Zrotation Xrotation Yrotation
		JOINT Spine02
		{
			OFFSET 0.0000 11.8586 169.5859
			CHANNELS 6 Xposition Yposition Zposition Zrotation Xrotation Yrotation
			JOINT LeftShoulder
			{
				OFFSET 83.0000 21.5583 44.2746
				CHANNELS 6 Xposition Yposition Zposition Zrotation Xrotation Yrotation
				JOINT LeftArm
				{
					OFFSET 0.0000 -111.4369 141.3570
					CHANNELS 6 Xposition Yposition Zposition Zrotation Xrotation Yrotation
					JOINT LeftForeArm
					{
						OFFSET 0.0000 -172.4081 -79.8464
						CHANNELS 6 Xposition Yposition Zposition Zrotation Xrotation Yrotation
						JOINT LeftWrist
						{
							OFFSET 0.0000 -209.8784 7.1457
							CHANNELS 6 Xposition Yposition Zposition Zrotation Xrotation Yrotation
							JOINT LeftHand
							{
								OFFSET 0.0000 -64.9257 26.1658
								CHANNELS 6 Xposition Yposition Zposition Zrotation Xrotation Yrotation
								End Site
								{
									OFFSET 0.0000 -20.5704 56.3636
								}
							}
						}
					}
				}
			}
			JOINT RightShoulder
			{
				OFFSET -83.0000 21.5583 44.2746
				CHANNELS 6 Xposition Yposition Zposition Zrotation Xrotation Yrotation
				JOINT RightArm
				{
					OFFSET 0.0000 -111.4369 141.3570
					CHANNELS 6 Xposition Yposition Zposition Zrotation Xrotation Yrotation
					JOINT RightForeArm
					{
						OFFSET 0.0000 -172.4081 -79.8464
						CHANNELS 6 Xposition Yposition Zposition Zrotation Xrotation Yrotation
						JOINT RightWrist
						{
							OFFSET 0.0000 -209.8784 7.1457
							CHANNELS 6 Xposition Yposition Zposition Zrotation Xrotation Yrotation
							JOINT RightHand
							{
								OFFSET 0.0000 -64.9257 26.1658
								CHANNELS 6 Xposition Yposition Zposition Zrotation Xrotation Yrotation
								End Site
								{
									OFFSET 0.0000 -20.5704 56.3636
								}
							}
						}
					}
				}
			}
			JOINT Neck01
			{
				OFFSET 0.0000 4.1879 119.9269
				CHANNELS 6 Xposition Yposition Zposition Zrotation Xrotation Yrotation
				JOINT Neck02
				{
					OFFSET 0.0000 -14.3102 88.8550
					CHANNELS 6 Xposition Yposition Zposition Zrotation Xrotation Yrotation
					JOINT Neck03
					{
						OFFSET 0.0000 72.0997 53.8668
						CHANNELS 6 Xposition Yposition Zposition Zrotation Xrotation Yrotation
						JOINT Neck04
						{
							OFFSET 0.0000 88.9597 -13.6445
							CHANNELS 6 Xposition Yposition Zposition Zrotation Xrotation Yrotation
							JOINT Head
							{
								OFFSET 0.0000 19.3735 72.4546
								CHANNELS 6 Xposition Yposition Zposition Zrotation Xrotation Yrotation
								End Site
								{
									OFFSET 0.0000 -28.2512 167.6361
								}
								JOINT LeftEar
								{
									OFFSET 45.0000 62.4894 -9.7509
									CHANNELS 6 Xposition Yposition Zposition Zrotation Xrotation Yrotation
									End Site
									{
										OFFSET 23.1256 59.6428 28.4242
									}
								}
								JOINT RightEar
								{
									OFFSET -45.0000 62.4894 -9.7509
									CHANNELS 6 Xposition Yposition Zposition Zrotation Xrotation Yrotation
									End Site
									{
										OFFSET -23.1256 59.6428 28.4242
									}
								}
							}
						}
					}
				}
			}
		}
	}
	JOINT LeftLeg
	{
		OFFSET 75.0000 -65.3041 -110.1607
		CHANNELS 6 Xposition Yposition Zposition Zrotation Xrotation Yrotation
		JOINT LeftLowerLeg
		{
			OFFSET 0.0000 -209.4885 14.6489
			CHANNELS 6 Xposition Yposition Zposition Zrotation Xrotation Yrotation
			JOINT LeftAnkle
			{
				OFFSET 0.0000 -168.5298 -141.4133
				CHANNELS 6 Xposition Yposition Zposition Zrotation Xrotation Yrotation
				JOINT LeftFoot
				{
					OFFSET 0.0000 -96.5926 25.8819
					CHANNELS 6 Xposition Yposition Zposition Zrotation Xrotation Yrotation
					End Site
					{
						OFFSET 0.0000 -19.5341 56.7311
					}
				}
			}
		}
	}
	JOINT RightLeg
	{
		OFFSET -75.0000 -65.3041 -110.1607
		CHANNELS 6 Xposition Yposition Zposition Zrotation Xrotation Yrotation
		JOINT RightLowerLeg
		{
			OFFSET 0.0000 -209.4885 14.6489
			CHANNELS 6 Xposition Yposition Zposition Zrotation Xrotation Yrotation
			JOINT RightAnkle
			{
				OFFSET 0.0000 -168.5298 -141.4133
				CHANNELS 6 Xposition Yposition Zposition Zrotation Xrotation Yrotation
				JOINT RightFoot
				{
					OFFSET 0.0000 -96.5926 25.8819
					CHANNELS 6 Xposition Yposition Zposition Zrotation Xrotation Yrotation
					End Site
					{
						OFFSET 0.0000 -19.5341 56.7311
					}
				}
			}
		}
	}
	JOINT TailBase
	{
		OFFSET 0.0000 -22.9100 -124.3991
		CHANNELS 6 Xposition Yposition Zposition Zrotation Xrotation Yrotation
		JOINT Tail1
		{
			OFFSET 0.0000 0.0000 -67.0000
			CHANNELS 6 Xposition Yposition Zposition Zrotation Xrotation Yrotation
			JOINT Tail2
			{
				OFFSET 0.0000 0.0000 -67.0000
				CHANNELS 6 Xposition Yposition Zposition Zrotation Xrotation Yrotation
				JOINT Tail3
				{
					OFFSET 0.0000 0.0000 -67.0000
					CHANNELS 6 Xposition Yposition Zposition Zrotation Xrotation Yrotation
					JOINT Tail4
					{
						OFFSET 0.0000 0.0000 -67.0000
						CHANNELS 6 Xposition Yposition Zposition Zrotation Xrotation Yrotation
						JOINT Tail5
						{
							OFFSET 0.0000 0.0000 -67.0000
							CHANNELS 6 Xposition Yposition Zposition Zrotation Xrotation Yrotation
							JOINT Tail6
							{
								OFFSET 0.0000 0.0000 -67.0000
								CHANNELS 6 Xposition Yposition Zposition Zrotation Xrotation Yrotation
								End Site
								{
									OFFSET 0.0000 0.0000 -67.0000
								}
							}
						}
					}
				}
			}
		}
	}
}
MOTION
Frames: 5
Frame Time: 0.008342
0.0000 0.0000 0.0000 0.0000 0.0000 0.0000 0.0000 -16.7008 118.8322 0.0000 0.0000 0.0000 0.0000 11.8586 169.5859 0.0000 0.0000 0.0000 83.0000 21.5583 44.2746 0.0000 0.0000 0.0000 0.0000 -111.4369 141.3570 0.0000 0.0000 0.0000 0.0000 -172.4081 -79.8464 0.0000 0.0000 0.0000 0.0000 -209.8784 7.1457 0.0000 0.0000 0.0000 0.0000 -64.9257 26.1658 0.0000 0.0000 0.0000 -83.0000 21.5583 44.2746 0.0000 0.0000 0.0000 0.0000 -111.4369 141.3570 0.0000 0.0000 0.0000 0.0000 -172.4081 -79.8464 0.0000 0.0000 0.0000 0.0000 -209.8784 7.1457 0.0000 0.0000 0.0000 0.0000 -64.9257 26.1658 0.0000 0.0000 0.0000 0.0000 4.1879 119.9269 0.0000 0.0000 0.0000 0.0000 -14.3102 88.8550 0.0000 0.0000 0.0000 0.0000 72.0997 53.8668 0.0000 0.0000 0.0000 0.0000 88.9597 -13.6445 0.0000 0.0000 0.0000 0.0000 19.3735 72.4546 0.0000 0.0000 0.0000 45.0000 62.4894 -9.7509 0.0000 0.0000 0.0000 -45.0000 62.4894 -9.7509 0.0000 0.0000 0.0000 75.0000 -65.3041 -110.1607 0.0000 0.0000 0.0000 0.0000 -209.4885 14.6489 0.0000 0.0000 0.0000 0.0000 -168.5298 -141.4133 0.0000 0.0000 0.0000 0.0000 -96.5926 25.8819 0.0000 0.0000 0.0000 -75.0000 -65.3041 -110.1607 0.0000 0.0000 0.0000 0.0000 -209.4885 14.6489 0.0000 0.0000 0.0000 0.0000 -168.5298 -141.4133 0.0000 0.0000 0.0000 0.0000 -96.5926 25.8819 0.0000 0.0000 0.0000 0.0000 -22.9100 -124.3991 0.0000 0.0000 0.0000 0.0000 0.0000 -67.0000 0.0000 0.0000 0.0000 0.0000 0.0000 -67.0000 0.0000 0.0000 0.0000 0.0000 0.0000 -67.0000 0.0000 0.0000 0.0000 0.0000 0.0000 -67.0000 0.0000 0.0000 0.0000 0.0000 0.0000 -67.0000 0.0000 0.0000 0.0000 0.0000 0.0000 -67.0000 0.0000 0.0000 0.0000 
-1648.9300 575.8420 332.4260 14.6547 9.5260 175.8156 0.0000 -16.7008 118.8322 7.5129 15.5296 -13.7724 0.0000 11.8586 169.5859 2.9974 7.0221 -13.3609 48.9297 25.3291 32.5679 6.2972 -4.3737 8.4890 0.0000 -111.4369 141.3570 16.7333 -2.5922 -3.5169 0.0000 -172.4081 -79.8464 0.4073 -4.7690 -11.9743 0.0000 -209.8784 7.1457 5.2673 17.2983 0.1896 0.0000 -64.9257 26.1658 -9.1561 -10.0697 1.7047 -75.1124 13.6354 53.1917 -5.9943 -6.8502 -9.0120 0.0000 -111.4369 141.3570 0.7966 -4.2678 -4.2364 -0.0000 -172.4081 -79.8464 -0.0359 -10.1581 1.0327 0.0000 -209.8784 7.1457 -4.3737 3.8940 -0.1495 0.0000 -64.9257 26.1658 23.5166 18.6823 -16.5046 0.0000 4.1879 119.9269 3.5637 -4.9297 -29.7575 0.0000 -14.3102 88.8550 12.8829 10.9912 9.9524 0.0000 72.0997 53.8668 -8.4793 -3.2818 -1.8773 -0.0000 88.9597 -13.6445 -1.2162 14.5019 -24.2212 0.0000 19.3735 72.4546 26.7182 -11.8532 23.3367 51.2194 63.9396 -9.3686 -11.2516 2.8908 1.7806 -34.8890 75.8281 -5.8256 6.6405 13.1432 8.1318 75.0000 -65.3041 -110.1607 21.2700 -2.1723 19.2942 0.0000 -209.4885 14.6489 -0.0000 8.1377 0.0000 0.0000 -168.5298 -141.4133 0.0000 -28.5287 0.0000 0.0000 -96.5926 25.8819 -3.7118 27.3389 2.8430 -75.0000 -65.3041 -110.1607 5.8783 -10.7218 -17.0270 0.0000 -209.4885 14.6489 0.0000 -20.1391 -0.0000 0.0000 -168.5298 -141.4133 -0.0000 18.3335 0.0000 -0.0000 -96.5926 25.8819 -15.5479 12.6995 8.8526 0.0000 -22.9100 -124.3991 -0.6512 -25.4559 -1.1696 -0.0000 0.0000 -67.0000 -1.0685 -20.4306 -3.0585 0.0000 0.0000 -67.0000 -0.5434 4.2200 7.3450 0.0000 0.0000 -67.0000 -1.3193 7.2536 10.3373 0.0000 0.0000 -67.0000 -3.9650 15.4685 14.5678 0.0000 -0.0000 -67.0000 -14.3607 15.7576 43.3127 -0.0000 -0.0000 -67.0000 -4.7260 18.6373 14.5039 
-1643.5800 576.5360 328.8140 14.0286 8.7269 173.3556 -0.0000 -16.7008 118.8322 7.6144 15.5140 -13.5210 0.0000 11.8586 169.5859 3.1117 6.5657 -12.8131 48.8364 25.2886 32.4506 4.6633 -3.9552 9.5888 -0.0000 -111.4369 141.3570 19.0088 -3.3825 -3.7707 -0.0000 -172.4081 -79.8464 0.4189 -3.5797 -12.3502 0.0000 -209.8784 7.1457 5.5946 18.3506 0.2026 0.0000 -64.9257 26.1658 -9.4402 -9.7340 1.8172 -76.0731 12.1066 55.3146 -4.3769 -5.5852 -10.5887 0.0000 -111.4369 141.3570 1.2192 -6.6649 -0.5655 -0.0000 -172.4081 -79.8464 -0.0064 -5.5849 0.1876 0.0000 -209.8784 7.1457 -4.3480 -0.9260 -0.1478 -0.0000 -64.9257 26.1658 22.2810 14.0532 -13.9816 -0.0000 4.1879 119.9269 3.2344 -5.3192 -28.9789 0.0000 -14.3102 88.8550 12.6348 10.3146 10.3841 0.0000 72.0997 53.8668 -8.7199 -3.4855 -1.6902 -0.0000 88.9597 -13.6445 -1.2382 13.2435 -23.4733 0.0000 19.3735 72.4546 26.8603 -12.3935 22.7178 51.2609 64.2855 -8.4310 -11.9855 3.2527 1.9037 -34.5368 76.4089 -6.0804 6.5229 13.6133 8.3059 75.0000 -65.3041 -110.1607 20.5410 -1.4476 19.8038 0.0000 -209.4885 14.6489 -0.0000 8.0114 0.0000 -0.0000 -168.5298 -141.4133 0.0000 -27.3888 0.0000 0.0000 -96.5926 25.8819 -4.4194 26.1113 3.3167 -75.0000 -65.3041 -110.1607 5.7205 -11.5512 -16.9865 -0.0000 -209.4885 14.6489 0.0000 -19.6649 0.0000 -0.0000 -168.5298 -141.4133 -0.0000 17.9665 0.0000 0.0000 -96.5926 25.8819 -16.0890 12.9229 9.2339 -0.0000 -22.9100 -124.3991 -0.4227 -26.3061 -0.7426 -0.0000 0.0000 -67.0000 -1.2272 -20.8697 -3.4413 0.0000 0.0000 -67.0000 -0.5749 4.5295 7.2416 0.0000 0.0000 -67.0000 -1.3829 7.2305 10.8579 -0.0000 0.0000 -67.0000 -4.0725 15.9489 14.5265 -0.0000 -0.0000 -67.0000 -13.8345 15.2446 43.1241 0.0000 0.0000 -67.0000 -4.8800 17.9542 15.4813 
-1637.6300 577.3490 324.5790 13.3348 7.8197 170.9978 -0.0000 -16.7008 118.8322 7.6459 15.5061 -13.3781 0.0000 11.8586 169.5859 3.0693 6.3163 -12.1769 48.1182 25.7350 32.4134 3.6514 -3.5358 10.7034 -0.0000 -111.4369 141.3570 20.9262 -4.0114 -3.7069 0.0000 -172.4081 -79.8464 0.4237 -2.8891 -12.5081 -0.0000 -209.8784 7.1457 5.9475 19.1552 0.2165 0.0000 -64.9257 26.1658 -9.8869 -8.5643 2.1183 -76.9789 11.6887 56.0129 -3.7484 -5.1826 -10.7936 0.0000 -111.4369 141.3570 2.1682 -5.3253 1.0050 0.0000 -172.4081 -79.8464 -0.0320 -6.5368 0.9295 0.0000 -209.8784 7.1457 -4.6142 -5.3058 -0.1571 0.0000 -64.9257 26.1658 20.6360 12.0766 -12.2050 -0.0000 4.1879 119.9269 3.0492 -5.6961 -28.4303 0.0000 -14.3102 88.8550 12.5483 9.2628 10.9638 0.0000 72.0997 53.8668 -9.1118 -3.3498 -1.4966 0.0000 88.9597 -13.6445 -1.5465 11.6437 -23.2578 0.0000 19.3735 72.4546 26.7224 -12.4347 22.5034 51.2778 64.3719 -7.8689 -12.5959 4.0697 1.8759 -34.3384 76.6444 -6.0265 6.1551 13.9393 8.4927 75.0000 -65.3041 -110.1607 19.7924 -0.7391 20.0164 0.0000 -209.4885 14.6489 -0.0000 7.5826 0.0000 0.0000 -168.5298 -141.4133 0.0000 -25.9624 0.0000 0.0000 -96.5926 25.8819 -4.9771 24.6682 3.6421 -75.0000 -65.3041 -110.1607 5.5795 -12.4500 -17.0373 -0.0000 -209.4885 14.6489 -0.0000 -19.0977 -0.0000 -0.0000 -168.5298 -141.4133 0.0000 17.6132 0.0000 -0.0000 -96.5926 25.8819 -16.6498 12.7708 9.5334 0.0000 -22.9100 -124.3991 -0.1242 -27.0342 -0.2143 -0.0000 0.0000 -67.0000 -1.3793 -21.3439 -3.7850 0.0000 0.0000 -67.0000 -0.5383 4.4540 6.8980 -0.0000 -0.0000 -67.0000 -1.3272 7.1742 10.5099 -0.0000 0.0000 -67.0000 -4.3128 16.6249 14.7667 0.0000 0.0000 -67.0000 -13.7582 14.9378 43.5274 0.0000 0.0000 -67.0000 -5.0410 17.1025 16.6965 
-1631.3700 578.1090 319.6170 12.7895 6.8789 168.6793 0.0000 -16.7008 118.8322 7.6527 15.5599 -13.3617 0.0000 11.8586 169.5859 3.1126 6.3971 -11.3667 47.0071 26.4747 32.3013 3.4928 -3.2891 11.5298 0.0000 -111.4369 141.3570 22.0217 -4.2106 -3.4583 0.0000 -172.4081 -79.8464 0.4057 -2.5050 -11.9738 0.0000 -209.8784 7.1457 6.5351 19.4918 0.2384 0.0000 -64.9257 26.1658 -10.7307 -5.9932 2.8099 -77.3642 12.3279 54.9233 -3.9721 -5.6086 -10.2509 0.0000 -111.4369 141.3570 3.5357 -2.0043 1.6337 0.0000 -172.4081 -79.8464 -0.0834 -10.6261 2.3917 0.0000 -209.8784 7.1457 -5.1121 -7.4317 -0.1745 0.0000 -64.9257 26.1658 18.5327 11.2047 -10.6052 -0.0000 4.1879 119.9269 2.8599 -6.5608 -28.1336 -0.0000 -14.3102 88.8550 12.4635 8.2910 11.6743 -0.0000 72.0997 53.8668 -9.5938 -2.9703 -1.2460 0.0000 88.9597 -13.6445 -1.7820 10.5234 -23.3469 -0.0000 19.3735 72.4546 26.7178 -12.5201 22.8853 51.5763 64.7672 -7.6493 -12.8563 4.7704 1.7763 -34.0919 76.9291 -5.5411 5.7524 13.4802 8.4396 75.0000 -65.3041 -110.1607 19.2395 0.0680 20.0744 0.0000 -209.4885 14.6489 -0.0000 7.0347 0.0000 -0.0000 -168.5298 -141.4133 0.0000 -24.5032 -0.0000 0.0000 -96.5926 25.8819 -5.4170 23.0589 3.8475 -75.0000 -65.3041 -110.1607 5.6248 -13.2788 -16.9788 0.0000 -209.4885 14.6489 0.0000 -18.3622 0.0000 0.0000 -168.5298 -141.4133 -0.0000 17.0983 -0.0000 -0.0000 -96.5926 25.8819 -16.8348 12.6491 9.6127 0.0000 -22.9100 -124.3991 0.1831 -27.5867 0.3117 -0.0000 0.0000 -67.0000 -1.5824 -21.5768 -4.2960 0.0000 0.0000 -67.0000 -0.4387 3.8892 6.4407 0.0000 -0.0000 -67.0000 -1.2583 6.8038 10.5037 0.0000 0.0000 -67.0000 -4.5548 17.3462 14.9598 0.0000 0.0000 -67.0000 -13.9272 15.1161 43.5593 0.0000 -0.0000 -67.0000 -5.2431 16.7866 17.6271 
